<svg width="114" height="41" viewBox="0 0 114 41" fill="none" xmlns="http://www.w3.org/2000/svg">
<path fill-rule="evenodd" clip-rule="evenodd" d="M1.08862 4.66293C1.52272 4.05905 2.36528 3.92061 2.97054 4.35372L6.51931 6.89313C7.12457 7.32624 7.26332 8.16689 6.82923 8.77078C6.39513 9.37466 5.55257 9.5131 4.94731 9.07999L1.39854 6.54058C0.793285 6.10747 0.654528 5.26682 1.08862 4.66293Z" fill="#1A1A1A"/>
<path fill-rule="evenodd" clip-rule="evenodd" d="M0.000498356 15.9438C-0.01955 15.2009 0.567784 14.5825 1.31235 14.5625L5.69693 14.4447C6.44149 14.4247 7.06133 15.0107 7.08138 15.7535C7.10143 16.4964 6.51409 17.1149 5.76953 17.1349L1.38495 17.2526C0.640386 17.2727 0.0205467 16.6867 0.000498356 15.9438Z" fill="#1A1A1A"/>
<path fill-rule="evenodd" clip-rule="evenodd" d="M10.0571 0.0625029C10.7676 -0.160728 11.5249 0.232922 11.7486 0.941743L13.0431 5.04296C13.2669 5.75179 12.8723 6.50736 12.1619 6.73059C11.4515 6.95382 10.6942 6.56017 10.4704 5.85135L9.17589 1.75013C8.95215 1.04131 9.34669 0.285734 10.0571 0.0625029Z" fill="#1A1A1A"/>
<path fill-rule="evenodd" clip-rule="evenodd" d="M10.0032 12.4224C9.63443 10.9982 10.9708 9.72064 12.3811 10.149L39.955 18.5241C41.4125 18.9667 41.7714 20.8607 40.5765 21.8037L33.8221 27.1343L36.437 35.4127C36.8935 36.8581 35.5395 38.2224 34.0863 37.7811L25.8714 35.2859L20.1373 40.5065C19.0863 41.4633 17.3925 40.9606 17.0366 39.5861L10.0032 12.4224ZM31.9737 25.1618L37.6912 20.6495L12.9755 13.1426L19.312 37.6147L24.3937 32.9882C24.886 32.54 25.5786 32.3839 26.2162 32.5776L33.4029 34.7604L31.1838 27.735L22.61 25.1309C21.8975 24.9145 21.4957 24.1627 21.7126 23.4518C21.9295 22.7409 22.683 22.34 23.3956 22.5564L31.9737 25.1618Z" fill="#1A1A1A"/>
<path d="M46.8012 32.8856H43.1761V35.0299H46.6976V36.735H43.1761V40.2228H41.3894V31.1805H46.8012V32.8856Z" fill="#1A1A1A"/>
<path d="M48.0254 40.2228V30.7929H49.6956V40.2228H48.0254Z" fill="#1A1A1A"/>
<path d="M55.4967 33.764H57.1668V40.2228H55.4967V39.4994C55.091 40.1022 54.448 40.4036 53.5676 40.4036C52.8598 40.4036 52.2729 40.1668 51.8068 39.6931C51.3494 39.2195 51.1206 38.565 51.1206 37.7297V33.764H52.7908V37.523C52.7908 37.9536 52.9073 38.2851 53.1404 38.5176C53.3734 38.7415 53.6841 38.8535 54.0725 38.8535C54.5041 38.8535 54.8493 38.72 55.1083 38.4531C55.3672 38.1861 55.4967 37.7856 55.4967 37.2517V33.764Z" fill="#1A1A1A"/>
<path d="M64.665 40.2228H62.723L60.3667 37.2905V40.2228H58.6965V31.1805H60.3667V36.6058L62.5935 33.764H64.5874L61.985 36.9546L64.665 40.2228Z" fill="#1A1A1A"/>
<path d="M69.9507 33.764H71.6209V40.2228H69.9507V39.4606C69.4501 40.0893 68.7467 40.4036 67.8404 40.4036C66.9772 40.4036 66.235 40.0764 65.6135 39.4219C65.0007 38.7588 64.6943 37.9493 64.6943 36.9934C64.6943 36.0375 65.0007 35.2323 65.6135 34.5778C66.235 33.9147 66.9772 33.5831 67.8404 33.5831C68.7467 33.5831 69.4501 33.8975 69.9507 34.5261V33.764ZM66.8693 38.311C67.206 38.6468 67.6332 38.8147 68.1511 38.8147C68.669 38.8147 69.0962 38.6468 69.4328 38.311C69.7781 37.9665 69.9507 37.5273 69.9507 36.9934C69.9507 36.4594 69.7781 36.0246 69.4328 35.6887C69.0962 35.3442 68.669 35.172 68.1511 35.172C67.6332 35.172 67.206 35.3442 66.8693 35.6887C66.5327 36.0246 66.3644 36.4594 66.3644 36.9934C66.3644 37.5273 66.5327 37.9665 66.8693 38.311Z" fill="#1A1A1A"/>
<path d="M79.5441 40.4036C78.6464 40.4036 77.8912 40.2055 77.2784 39.8094C76.6656 39.4046 76.234 38.8578 75.9837 38.1689L77.5114 37.2776C77.8653 38.199 78.5601 38.6597 79.5959 38.6597C80.0965 38.6597 80.4633 38.5693 80.6964 38.3885C80.9294 38.2076 81.0459 37.9794 81.0459 37.7038C81.0459 37.3852 80.9035 37.1398 80.6187 36.9675C80.3338 36.7867 79.8246 36.5929 79.0909 36.3862C78.6853 36.2657 78.34 36.1451 78.0552 36.0246C77.779 35.904 77.4985 35.7447 77.2136 35.5466C76.9374 35.3399 76.726 35.0816 76.5792 34.7715C76.4325 34.4615 76.3591 34.0998 76.3591 33.6865C76.3591 32.8684 76.6483 32.2182 77.2266 31.7359C77.8135 31.2451 78.517 30.9996 79.3369 30.9996C80.0706 30.9996 80.7136 31.1805 81.266 31.5422C81.8271 31.8952 82.2629 32.3904 82.5737 33.0277L81.0718 33.8932C80.7093 33.1181 80.131 32.7306 79.3369 32.7306C78.9658 32.7306 78.6723 32.8167 78.4565 32.9889C78.2494 33.1526 78.1458 33.3678 78.1458 33.6348C78.1458 33.919 78.2623 34.1515 78.4954 34.3324C78.7371 34.5046 79.1945 34.694 79.8678 34.9007C80.144 34.9868 80.3511 35.0557 80.4892 35.1074C80.6359 35.1505 80.8301 35.2237 81.0718 35.327C81.3221 35.4217 81.512 35.5122 81.6415 35.5983C81.7796 35.6844 81.935 35.8006 82.1076 35.947C82.2802 36.0934 82.4097 36.2442 82.496 36.3992C82.5909 36.5542 82.6686 36.7436 82.729 36.9675C82.7981 37.1828 82.8326 37.4196 82.8326 37.678C82.8326 38.5133 82.5262 39.1764 81.9134 39.6673C81.3092 40.1582 80.5194 40.4036 79.5441 40.4036Z" fill="#1A1A1A"/>
<path d="M87.4334 35.3658H85.9704V38.0526C85.9704 38.2765 86.0265 38.4401 86.1387 38.5435C86.2509 38.6468 86.4149 38.7071 86.6307 38.7243C86.8465 38.7329 87.1141 38.7286 87.4334 38.7114V40.2228C86.2855 40.3519 85.4741 40.2443 84.9994 39.8998C84.5333 39.5553 84.3003 38.9396 84.3003 38.0526V35.3658H83.1739V33.764H84.3003V32.4593L85.9704 31.9555V33.764H87.4334V35.3658Z" fill="#1A1A1A"/>
<path d="M92.9846 33.764H94.6548V40.2228H92.9846V39.4994C92.5789 40.1022 91.9359 40.4036 91.0555 40.4036C90.3477 40.4036 89.7608 40.1668 89.2947 39.6931C88.8373 39.2195 88.6086 38.565 88.6086 37.7297V33.764H90.2787V37.523C90.2787 37.9536 90.3952 38.2851 90.6283 38.5176C90.8613 38.7415 91.172 38.8535 91.5604 38.8535C91.992 38.8535 92.3373 38.72 92.5962 38.4531C92.8551 38.1861 92.9846 37.7856 92.9846 37.2517V33.764Z" fill="#1A1A1A"/>
<path d="M101.091 31.1805H102.761V40.2228H101.091V39.4606C100.599 40.0893 99.9002 40.4036 98.9939 40.4036C98.1221 40.4036 97.3755 40.0764 96.7541 39.4219C96.1413 38.7588 95.8349 37.9493 95.8349 36.9934C95.8349 36.0375 96.1413 35.2323 96.7541 34.5778C97.3755 33.9147 98.1221 33.5831 98.9939 33.5831C99.9002 33.5831 100.599 33.8975 101.091 34.5261V31.1805ZM98.0099 38.311C98.3552 38.6468 98.7868 38.8147 99.3046 38.8147C99.8225 38.8147 100.25 38.6468 100.586 38.311C100.923 37.9665 101.091 37.5273 101.091 36.9934C101.091 36.4594 100.923 36.0246 100.586 35.6887C100.25 35.3442 99.8225 35.172 99.3046 35.172C98.7868 35.172 98.3552 35.3442 98.0099 35.6887C97.6733 36.0246 97.505 36.4594 97.505 36.9934C97.505 37.5273 97.6733 37.9665 98.0099 38.311Z" fill="#1A1A1A"/>
<path d="M105.117 32.9889C104.841 32.9889 104.6 32.8899 104.392 32.6918C104.194 32.4851 104.095 32.244 104.095 31.9684C104.095 31.6929 104.194 31.4517 104.392 31.2451C104.6 31.0384 104.841 30.935 105.117 30.935C105.402 30.935 105.644 31.0384 105.843 31.2451C106.05 31.4517 106.153 31.6929 106.153 31.9684C106.153 32.244 106.05 32.4851 105.843 32.6918C105.644 32.8899 105.402 32.9889 105.117 32.9889ZM104.289 40.2228V33.764H105.959V40.2228H104.289Z" fill="#1A1A1A"/>
<path d="M113.003 39.4219C112.338 40.0764 111.527 40.4036 110.569 40.4036C109.611 40.4036 108.8 40.0764 108.135 39.4219C107.479 38.7588 107.151 37.9493 107.151 36.9934C107.151 36.0375 107.479 35.2323 108.135 34.5778C108.8 33.9147 109.611 33.5831 110.569 33.5831C111.527 33.5831 112.338 33.9147 113.003 34.5778C113.668 35.2323 114 36.0375 114 36.9934C114 37.9493 113.668 38.7588 113.003 39.4219ZM109.313 38.2722C109.65 38.6081 110.068 38.776 110.569 38.776C111.07 38.776 111.488 38.6081 111.825 38.2722C112.162 37.9364 112.33 37.5101 112.33 36.9934C112.33 36.4767 112.162 36.0504 111.825 35.7145C111.488 35.3787 111.07 35.2107 110.569 35.2107C110.068 35.2107 109.65 35.3787 109.313 35.7145C108.985 36.0504 108.821 36.4767 108.821 36.9934C108.821 37.5101 108.985 37.9364 109.313 38.2722Z" fill="#1A1A1A"/>
</svg>
