<svg width="26" height="26" viewBox="0 0 26 26" fill="none" xmlns="http://www.w3.org/2000/svg">
<path d="M12.8333 6.24992C9.1924 6.24992 6.25564 9.18668 6.25564 12.8276C6.25564 16.4685 9.1924 19.4052 12.8333 19.4052C16.4742 19.4052 19.411 16.4685 19.411 12.8276C19.411 9.18668 16.4742 6.24992 12.8333 6.24992ZM12.8333 17.1039C10.4805 17.1039 8.55696 15.1861 8.55696 12.8276C8.55696 10.469 10.4747 8.55124 12.8333 8.55124C15.1919 8.55124 17.1096 10.469 17.1096 12.8276C17.1096 15.1861 15.1861 17.1039 12.8333 17.1039ZM21.2142 5.98086C21.2142 6.83384 20.5273 7.51507 19.68 7.51507C18.827 7.51507 18.1458 6.82811 18.1458 5.98086C18.1458 5.13361 18.8328 4.44664 19.68 4.44664C20.5273 4.44664 21.2142 5.13361 21.2142 5.98086ZM25.5707 7.53797C25.4734 5.48281 25.004 3.66236 23.4984 2.1625C21.9985 0.662632 20.1781 0.193208 18.1229 0.0901637C16.0048 -0.0300546 9.6561 -0.0300546 7.53797 0.0901637C5.48854 0.187483 3.66809 0.656907 2.1625 2.15677C0.656907 3.65664 0.193208 5.47709 0.0901637 7.53225C-0.0300546 9.65038 -0.0300546 15.999 0.0901637 18.1172C0.187483 20.1723 0.656907 21.9928 2.1625 23.4927C3.66809 24.9925 5.48281 25.4619 7.53797 25.565C9.6561 25.6852 16.0048 25.6852 18.1229 25.565C20.1781 25.4677 21.9985 24.9982 23.4984 23.4927C24.9982 21.9928 25.4677 20.1723 25.5707 18.1172C25.6909 15.999 25.6909 9.6561 25.5707 7.53797ZM22.8343 20.3899C22.3878 21.5119 21.5234 22.3763 20.3956 22.8286C18.7068 23.4984 14.6995 23.3438 12.8333 23.3438C10.9671 23.3438 6.95405 23.4927 5.271 22.8286C4.14896 22.3821 3.28454 21.5176 2.83229 20.3899C2.1625 18.7011 2.31706 14.6938 2.31706 12.8276C2.31706 10.9613 2.16822 6.94833 2.83229 5.26527C3.27881 4.14324 4.14324 3.27881 5.271 2.82656C6.95978 2.15677 10.9671 2.31134 12.8333 2.31134C14.6995 2.31134 18.7125 2.1625 20.3956 2.82656C21.5176 3.27309 22.3821 4.13751 22.8343 5.26527C23.5041 6.95405 23.3495 10.9613 23.3495 12.8276C23.3495 14.6938 23.5041 18.7068 22.8343 20.3899Z" fill="#1A1A1A"/>
</svg>
