<svg width="36" height="36" viewBox="0 0 36 36" fill="none" xmlns="http://www.w3.org/2000/svg">
<path d="M10.9284 30.2868H5.75781V13.6382H10.9362V30.2868H10.9284Z" fill="#1A1A1A"/>
<path d="M8.3431 11.3643C6.68447 11.3643 5.3451 10.0172 5.3451 8.36634C5.3451 6.71549 6.68447 5.36834 8.3431 5.36834C9.99395 5.36834 11.3411 6.71549 11.3411 8.36634C11.3411 10.025 10.0017 11.3643 8.3431 11.3643Z" fill="#1A1A1A"/>
<path d="M30.3103 30.2868H25.1397V22.1883C25.1397 20.2571 25.1008 17.7731 22.4532 17.7731C19.7589 17.7731 19.3462 19.8756 19.3462 22.0481V30.2868H14.1756V13.6382H19.1359V15.912H19.206C19.899 14.6037 21.5888 13.2254 24.104 13.2254C29.3369 13.2254 30.3103 16.6751 30.3103 21.1604V30.2868Z" fill="#1A1A1A"/>
</svg>
