<svg width="684" height="235" viewBox="0 0 684 235" fill="none" xmlns="http://www.w3.org/2000/svg">
<path fill-rule="evenodd" clip-rule="evenodd" d="M226.676 2.51651C272.051 -3.20806 326.578 1.16458 370.326 12.2803C373.003 12.9604 374.621 15.6813 373.941 18.3577C373.261 21.034 370.54 22.6524 367.864 21.9724C325.2 11.1321 271.936 6.88574 227.928 12.4379C205.912 15.2155 186.535 20.4065 172.023 28.2093C171.229 28.6359 170.452 29.0694 169.691 29.5098C213.121 26.8157 265.052 25.4631 308.866 27.6789C337.819 29.1432 363.649 32.1819 381.169 37.6006C389.832 40.2796 397.185 43.7489 401.724 48.4876C404.072 50.9392 405.79 53.8611 406.383 57.2619C406.978 60.6733 406.359 64.0998 404.823 67.4089C401.226 75.1547 393.614 81.9573 384.049 87.8284C374.364 93.7732 362.087 99.1195 348.322 103.7C320.782 112.863 286.686 119.154 254.025 120.856C221.487 122.551 189.731 119.727 167.202 110.144C155.893 105.334 146.516 98.6535 140.724 89.5904C134.846 80.3935 133.006 69.2804 135.854 56.4328C137.057 51.0075 139.164 46.0474 142.031 41.5262C138.395 41.827 134.869 42.1351 131.466 42.4489C128.716 42.7024 126.282 40.6788 126.028 37.9291C125.775 35.1793 127.798 32.7447 130.548 32.4911C136.976 31.8984 143.844 31.3253 151.058 30.7841C155.711 26.4594 161.193 22.6784 167.287 19.4017C183.288 10.7985 204.001 5.37728 226.676 2.51651ZM155.471 40.4862C150.447 45.8361 147.109 51.8678 145.617 58.5973C143.264 69.2085 144.889 77.5384 149.15 84.2053C153.496 91.006 160.931 96.6099 171.116 100.942C191.576 109.644 221.535 112.535 253.505 110.869C285.35 109.21 318.552 103.066 345.165 94.2109C358.476 89.782 369.99 84.724 378.817 79.3059C387.765 73.814 393.386 68.2951 395.753 63.1974C396.602 61.3692 396.712 60.0142 396.532 58.98C396.35 57.9351 395.788 56.7472 394.502 55.4046C391.773 52.5551 386.443 49.6989 378.215 47.1541C361.955 42.1253 337.176 39.1234 308.361 37.6662C259.903 35.2155 201.216 37.1787 155.471 40.4862Z" fill="#BC73F2"/>
<path fill-rule="evenodd" clip-rule="evenodd" d="M320.96 200.394C279.699 203.304 232.184 209.846 201.733 214.455C199.003 214.868 196.454 212.989 196.041 210.259C195.628 207.529 197.507 204.98 200.237 204.567C230.758 199.948 278.589 193.358 320.257 190.419C341.064 188.951 360.523 188.38 375.582 189.463C383.092 190.003 389.737 190.969 394.988 192.541C399.975 194.034 404.902 196.416 407.324 200.684C408.121 202.088 408.473 203.943 407.763 205.835C407.15 207.472 405.98 208.478 405.182 209.031C403.618 210.116 401.56 210.768 399.719 211.226C395.809 212.198 390.173 212.91 383.688 213.476C370.736 214.605 353.234 215.241 336.328 215.855L335.845 215.873C323.169 216.333 310.88 216.784 300.932 217.415C305.546 217.963 310.543 218.481 315.588 219.004L315.822 219.028C323.344 219.807 330.965 220.596 337.323 221.496C340.537 221.95 343.506 222.444 346.025 222.995C348.448 223.525 350.817 224.183 352.615 225.082C355.085 226.317 356.086 229.32 354.851 231.79C353.616 234.26 350.613 235.261 348.143 234.026C347.51 233.71 346.156 233.26 343.887 232.764C341.714 232.288 339.02 231.835 335.922 231.397C329.75 230.524 322.282 229.751 314.661 228.961L314.558 228.951C306.958 228.164 299.213 227.361 292.724 226.438C289.477 225.976 286.47 225.474 283.905 224.913C281.425 224.371 279.031 223.705 277.198 222.815C276.364 222.41 275.431 221.879 274.625 221.165C273.894 220.517 272.594 219.118 272.451 216.94C272.294 214.541 273.619 212.907 274.539 212.107C275.429 211.333 276.436 210.863 277.189 210.566C280.067 209.433 284.922 208.739 290.347 208.21C301.617 207.112 318.445 206.498 335.482 205.879L335.751 205.87C352.818 205.249 370.121 204.621 382.819 203.513C386.765 203.169 390.157 202.787 392.903 202.366C392.652 202.284 392.391 202.203 392.12 202.121C387.877 200.851 382.057 199.955 374.864 199.437C360.518 198.405 341.618 198.937 320.96 200.394ZM280.7 219.937C280.7 219.937 280.707 219.934 280.722 219.927C280.708 219.934 280.7 219.937 280.7 219.937Z" fill="#BC73F2"/>
<path d="M36.9028 45.3306L20.7108 71.7626V90.1306H16.2308V71.6346L0.102783 45.3306H5.15878L18.5348 67.2826L31.8468 45.3306H36.9028Z" fill="#1A1A1A"/>
<path d="M62.4463 86.0986C59.2036 89.2986 55.2356 90.8986 50.5423 90.8986C45.8489 90.8986 41.8596 89.2986 38.5743 86.0986C35.3316 82.8559 33.7103 78.8666 33.7103 74.1306C33.7103 69.3946 35.3316 65.4266 38.5743 62.2266C41.8596 58.9839 45.8489 57.3626 50.5423 57.3626C55.2356 57.3626 59.2036 58.9839 62.4463 62.2266C65.7316 65.4266 67.3743 69.3946 67.3743 74.1306C67.3743 78.8666 65.7316 82.8559 62.4463 86.0986ZM41.5823 83.1546C44.0143 85.5866 47.0009 86.8026 50.5423 86.8026C54.0836 86.8026 57.0703 85.5866 59.5023 83.1546C61.9343 80.6799 63.1503 77.6719 63.1503 74.1306C63.1503 70.5892 61.9343 67.6026 59.5023 65.1706C57.0703 62.6959 54.0836 61.4586 50.5423 61.4586C47.0009 61.4586 44.0143 62.6959 41.5823 65.1706C39.1503 67.6026 37.9343 70.5892 37.9343 74.1306C37.9343 77.6719 39.1503 80.6799 41.5823 83.1546Z" fill="#1A1A1A"/>
<path d="M96.9708 58.1306H101.195V90.1306H96.9708V85.1386C94.5815 88.9786 90.9975 90.8986 86.2188 90.8986C82.3361 90.8986 79.2641 89.7252 77.0028 87.3786C74.7841 84.9892 73.6748 81.7892 73.6748 77.7786V58.1306H77.8988V77.7786C77.8988 80.6372 78.6455 82.8559 80.1388 84.4346C81.6748 86.0132 83.8295 86.8026 86.6028 86.8026C89.6748 86.8026 92.1708 85.8426 94.0908 83.9226C96.0108 81.9599 96.9708 78.9519 96.9708 74.8986V58.1306Z" fill="#1A1A1A"/>
<path d="M114.354 63.4426C116.317 59.5599 119.688 57.6186 124.466 57.6186V61.7146C121.565 61.7146 119.154 62.5679 117.234 64.2746C115.314 65.9812 114.354 68.6692 114.354 72.3386V90.1306H110.13V58.1306H114.354V63.4426Z" fill="#1A1A1A"/>
<path d="M165.135 90.8346C158.437 90.8346 153.274 88.5306 149.647 83.9226C146.021 79.3146 144.783 73.7679 145.935 67.2826C147.087 60.7972 150.181 55.3999 155.215 51.0906C160.25 46.7812 165.967 44.6266 172.367 44.6266C176.634 44.6266 180.325 45.6079 183.439 47.5706C186.597 49.4906 188.943 52.1146 190.479 55.4426L187.471 57.0426C184.613 50.9412 179.557 47.8906 172.303 47.8906C166.586 47.8906 161.551 49.8106 157.199 53.6506C152.89 57.4479 150.245 62.1412 149.263 67.7306C148.325 73.3199 149.37 78.0346 152.399 81.8746C155.429 85.6719 159.781 87.5706 165.455 87.5706C169.082 87.5706 172.474 86.7386 175.631 85.0746C178.831 83.3679 181.455 81.0212 183.503 78.0346L186.383 79.8266C183.994 83.1972 180.922 85.8852 177.167 87.8906C173.413 89.8532 169.402 90.8346 165.135 90.8346Z" fill="#1A1A1A"/>
<path d="M199.822 63.5706C202.723 59.4319 206.648 57.4692 211.598 57.6826L211.022 60.7546C207.992 60.7546 205.283 61.7359 202.894 63.6986C200.504 65.6186 198.968 68.4986 198.286 72.3386L195.15 90.1306H191.95L197.582 58.1306H200.782L199.822 63.5706Z" fill="#1A1A1A"/>
<path d="M230.851 57.4266C235.629 57.4266 239.235 59.0906 241.667 62.4186C244.141 65.7466 244.931 69.6932 244.035 74.2586C243.907 74.9839 243.779 75.4959 243.651 75.7946H214.787C214.531 79.4212 215.427 82.3225 217.475 84.4986C219.565 86.6746 222.445 87.7626 226.115 87.7626C231.405 87.7626 235.459 85.7999 238.275 81.8746L240.771 83.5386C239.235 85.8426 237.101 87.6346 234.371 88.9146C231.64 90.1945 228.739 90.8346 225.667 90.8346C220.803 90.8346 217.069 89.2132 214.467 85.9706C211.864 82.6852 210.989 78.5892 211.843 73.6826C212.696 68.9466 214.893 65.0639 218.435 62.0346C221.976 58.9626 226.115 57.4266 230.851 57.4266ZM215.299 72.6586H240.963C241.347 68.8186 240.579 65.8319 238.659 63.6986C236.739 61.5652 234.051 60.4986 230.595 60.4986C226.925 60.4986 223.704 61.6079 220.931 63.8266C218.157 66.0452 216.28 68.9892 215.299 72.6586Z" fill="#1A1A1A"/>
<path d="M282.62 58.1306H285.82L280.188 90.1306H276.988L278.14 83.6026C274.556 88.4239 269.628 90.8346 263.356 90.8346C258.833 90.8346 255.185 89.1066 252.412 85.6506C249.638 82.1945 248.657 78.1199 249.468 73.4266C250.364 68.4346 252.561 64.5306 256.06 61.7146C259.601 58.8559 263.569 57.4266 267.964 57.4266C270.993 57.4266 273.702 58.2159 276.092 59.7946C278.481 61.3306 280.188 63.4639 281.212 66.1946L282.62 58.1306ZM255.036 83.6026C257.254 86.3759 260.284 87.7626 264.124 87.7626C267.964 87.7626 271.356 86.5252 274.3 84.0506C277.244 81.5759 279.036 78.4185 279.676 74.5786C280.401 70.4399 279.59 67.0692 277.244 64.4666C274.94 61.8212 271.91 60.4986 268.156 60.4986C264.486 60.4986 261.18 61.6932 258.236 64.0826C255.292 66.4292 253.457 69.6292 252.732 73.6826C252.049 77.5226 252.817 80.8292 255.036 83.6026Z" fill="#1A1A1A"/>
<path d="M302.043 61.2666L298.331 82.0666C297.904 84.6692 298.331 86.2692 299.611 86.8666C300.933 87.4639 303.387 87.5919 306.971 87.2506L306.523 90.1306C302.213 90.8132 299.077 90.5146 297.115 89.2346C295.152 87.9546 294.491 85.5652 295.131 82.0666L298.779 61.2666H291.739L292.315 58.1306H299.355L300.763 50.1306L304.155 49.1706L302.555 58.1306H312.155L311.579 61.2666H302.043Z" fill="#1A1A1A"/>
<path d="M322.776 50.3866C322.05 50.3866 321.496 50.1519 321.112 49.6826C320.728 49.1706 320.6 48.5519 320.728 47.8266C320.813 47.1439 321.133 46.5679 321.688 46.0986C322.242 45.5866 322.904 45.3306 323.672 45.3306C324.354 45.3306 324.909 45.5866 325.336 46.0986C325.762 46.5679 325.912 47.1439 325.784 47.8266C325.656 48.5519 325.314 49.1706 324.76 49.6826C324.205 50.1519 323.544 50.3866 322.776 50.3866ZM314.2 90.1306L319.832 58.1306H323.032L317.4 90.1306H314.2Z" fill="#1A1A1A"/>
<path d="M354.014 58.1306H357.662L339.55 90.1306H335.646L328.798 58.1306H332.126L338.014 86.6746L354.014 58.1306Z" fill="#1A1A1A"/>
<path d="M376.288 57.4266C381.067 57.4266 384.672 59.0906 387.104 62.4186C389.579 65.7466 390.368 69.6932 389.472 74.2586C389.344 74.9839 389.216 75.4959 389.088 75.7946H360.224C359.968 79.4212 360.864 82.3225 362.912 84.4986C365.003 86.6746 367.883 87.7626 371.552 87.7626C376.843 87.7626 380.896 85.7999 383.712 81.8746L386.208 83.5386C384.672 85.8426 382.539 87.6346 379.808 88.9146C377.078 90.1945 374.176 90.8346 371.104 90.8346C366.24 90.8346 362.507 89.2132 359.904 85.9706C357.302 82.6852 356.427 78.5892 357.28 73.6826C358.134 68.9466 360.331 65.0639 363.872 62.0346C367.414 58.9626 371.552 57.4266 376.288 57.4266ZM360.736 72.6586H386.4C386.784 68.8186 386.016 65.8319 384.096 63.6986C382.176 61.5652 379.488 60.4986 376.032 60.4986C372.363 60.4986 369.142 61.6079 366.368 63.8266C363.595 66.0452 361.718 68.9892 360.736 72.6586Z" fill="#1A1A1A"/>
<path d="M425.177 90.1306L408.665 45.3306H413.529L427.481 84.1786L441.433 45.3306H446.297L429.785 90.1306H425.177Z" fill="#1A1A1A"/>
<path d="M454.481 50.4506C453.883 51.0479 453.158 51.3466 452.305 51.3466C451.451 51.3466 450.726 51.0479 450.129 50.4506C449.531 49.8532 449.233 49.1279 449.233 48.2746C449.233 47.4212 449.531 46.6959 450.129 46.0986C450.726 45.5012 451.451 45.2026 452.305 45.2026C453.158 45.2026 453.883 45.5012 454.481 46.0986C455.078 46.6959 455.377 47.4212 455.377 48.2746C455.377 49.1279 455.078 49.8532 454.481 50.4506ZM450.193 90.1306V58.1306H454.417V90.1306H450.193Z" fill="#1A1A1A"/>
<path d="M466.708 66.5146C466.708 67.9652 467.348 69.1172 468.628 69.9706C469.908 70.8239 471.466 71.4852 473.3 71.9546C475.135 72.4239 476.97 72.9572 478.804 73.5546C480.639 74.1092 482.196 75.0692 483.476 76.4346C484.756 77.7572 485.396 79.5066 485.396 81.6826C485.396 84.4132 484.308 86.6319 482.132 88.3386C479.999 90.0452 477.226 90.8986 473.812 90.8986C470.74 90.8986 468.116 90.2159 465.94 88.8506C463.807 87.4852 462.314 85.7146 461.46 83.5386L465.044 81.4266C465.642 83.0906 466.708 84.4132 468.244 85.3946C469.823 86.3332 471.679 86.8026 473.812 86.8026C475.903 86.8026 477.652 86.3972 479.06 85.5866C480.468 84.7332 481.172 83.4319 481.172 81.6826C481.172 80.2319 480.532 79.0799 479.252 78.2266C477.972 77.3732 476.415 76.7119 474.58 76.2426C472.746 75.7732 470.911 75.2612 469.076 74.7066C467.242 74.1092 465.684 73.1492 464.404 71.8266C463.124 70.4612 462.484 68.6906 462.484 66.5146C462.484 63.9119 463.508 61.7359 465.556 59.9866C467.647 58.2372 470.271 57.3626 473.428 57.3626C476.031 57.3626 478.314 57.9599 480.276 59.1546C482.239 60.3066 483.69 61.8852 484.628 63.8906L481.108 65.9386C479.871 62.9519 477.311 61.4586 473.428 61.4586C471.594 61.4586 470.015 61.9066 468.692 62.8026C467.37 63.6559 466.708 64.8932 466.708 66.5146Z" fill="#1A1A1A"/>
<path d="M496.418 50.4506C495.821 51.0479 495.096 51.3466 494.242 51.3466C493.389 51.3466 492.664 51.0479 492.066 50.4506C491.469 49.8532 491.17 49.1279 491.17 48.2746C491.17 47.4212 491.469 46.6959 492.066 46.0986C492.664 45.5012 493.389 45.2026 494.242 45.2026C495.096 45.2026 495.821 45.5012 496.418 46.0986C497.016 46.6959 497.314 47.4212 497.314 48.2746C497.314 49.1279 497.016 49.8532 496.418 50.4506ZM492.13 90.1306V58.1306H496.354V90.1306H492.13Z" fill="#1A1A1A"/>
<path d="M532.134 86.0986C528.891 89.2986 524.923 90.8986 520.23 90.8986C515.536 90.8986 511.547 89.2986 508.262 86.0986C505.019 82.8559 503.398 78.8666 503.398 74.1306C503.398 69.3946 505.019 65.4266 508.262 62.2266C511.547 58.9839 515.536 57.3626 520.23 57.3626C524.923 57.3626 528.891 58.9839 532.134 62.2266C535.419 65.4266 537.062 69.3946 537.062 74.1306C537.062 78.8666 535.419 82.8559 532.134 86.0986ZM511.27 83.1546C513.702 85.5866 516.688 86.8026 520.23 86.8026C523.771 86.8026 526.758 85.5866 529.19 83.1546C531.622 80.6799 532.838 77.6719 532.838 74.1306C532.838 70.5892 531.622 67.6026 529.19 65.1706C526.758 62.6959 523.771 61.4586 520.23 61.4586C516.688 61.4586 513.702 62.6959 511.27 65.1706C508.838 67.6026 507.622 70.5892 507.622 74.1306C507.622 77.6719 508.838 80.6799 511.27 83.1546Z" fill="#1A1A1A"/>
<path d="M559.106 57.3626C562.989 57.3626 566.04 58.5572 568.258 60.9466C570.52 63.2932 571.65 66.4719 571.65 70.4826V90.1306H567.426V70.4826C567.426 67.6239 566.658 65.4052 565.122 63.8266C563.629 62.2479 561.496 61.4586 558.722 61.4586C555.65 61.4586 553.154 62.4399 551.234 64.4026C549.314 66.3226 548.354 69.3092 548.354 73.3626V90.1306H544.13V58.1306H548.354V63.1226C550.744 59.2826 554.328 57.3626 559.106 57.3626Z" fill="#1A1A1A"/>
<path d="M41.6388 166.179C37.1588 170.659 31.6761 172.899 25.1908 172.899C18.7055 172.899 13.2228 170.659 8.74278 166.179C4.26278 161.656 2.02278 156.173 2.02278 149.731C2.02278 143.288 4.26278 137.827 8.74278 133.347C13.2228 128.824 18.7055 126.563 25.1908 126.563C31.6761 126.563 37.1588 128.824 41.6388 133.347C46.1188 137.827 48.3588 143.288 48.3588 149.731C48.3588 156.173 46.1188 161.656 41.6388 166.179ZM11.8788 163.107C15.4628 166.733 19.9001 168.547 25.1908 168.547C30.4815 168.547 34.9188 166.733 38.5028 163.107C42.0868 159.437 43.8788 154.979 43.8788 149.731C43.8788 144.483 42.0868 140.045 38.5028 136.419C34.9188 132.749 30.4815 130.915 25.1908 130.915C19.9001 130.915 15.4628 132.749 11.8788 136.419C8.29478 140.045 6.50278 144.483 6.50278 149.731C6.50278 154.979 8.29478 159.437 11.8788 163.107Z" fill="#1A1A1A"/>
<path d="M78.2208 140.131H82.4448V172.131H78.2208V167.139C75.8315 170.979 72.2475 172.899 67.4688 172.899C63.5861 172.899 60.5141 171.725 58.2528 169.379C56.0341 166.989 54.9248 163.789 54.9248 159.779V140.131H59.1488V159.779C59.1488 162.637 59.8955 164.856 61.3888 166.435C62.9248 168.013 65.0795 168.803 67.8528 168.803C70.9248 168.803 73.4208 167.843 75.3408 165.923C77.2608 163.96 78.2208 160.952 78.2208 156.899V140.131Z" fill="#1A1A1A"/>
<path d="M95.6043 145.443C97.567 141.56 100.938 139.619 105.716 139.619V143.715C102.815 143.715 100.404 144.568 98.4843 146.275C96.5643 147.981 95.6043 150.669 95.6043 154.339V172.131H91.3803V140.131H95.6043V145.443Z" fill="#1A1A1A"/>
<path d="M157.585 127.331V139.747H147.025V172.131H134.225V139.747H123.665V127.331H157.585Z" fill="#1A1A1A"/>
<path d="M166.208 160.163C167.232 162.296 169.408 163.363 172.736 163.363C174.698 163.363 176.512 162.68 178.176 161.315L185.92 167.843C182.72 171.299 178.197 173.027 172.352 173.027C166.89 173.027 162.496 171.448 159.168 168.291C155.882 165.091 154.24 161.08 154.24 156.259C154.24 151.395 155.84 147.341 159.04 144.099C162.282 140.856 166.357 139.235 171.264 139.235C176.128 139.235 180.117 140.835 183.232 144.035C186.389 147.192 187.968 151.181 187.968 156.003C187.968 157.411 187.797 158.797 187.456 160.163H166.208ZM166.016 152.547H176.768C176.042 149.987 174.314 148.707 171.584 148.707C168.81 148.707 166.954 149.987 166.016 152.547Z" fill="#1A1A1A"/>
<path d="M207.265 173.027C202.359 173.027 198.284 171.427 195.041 168.227C191.799 164.984 190.177 160.952 190.177 156.131C190.177 151.309 191.799 147.299 195.041 144.099C198.284 140.856 202.359 139.235 207.265 139.235C210.423 139.235 213.303 140.003 215.905 141.539C218.551 143.032 220.577 145.059 221.985 147.619L212.001 153.315C210.935 151.523 209.356 150.627 207.265 150.627C205.772 150.627 204.513 151.16 203.489 152.227C202.508 153.251 202.017 154.552 202.017 156.131C202.017 157.709 202.508 159.032 203.489 160.099C204.513 161.123 205.772 161.635 207.265 161.635C209.484 161.635 211.063 160.717 212.001 158.883L221.985 164.643C220.577 167.245 218.551 169.293 215.905 170.787C213.303 172.28 210.423 173.027 207.265 173.027Z" fill="#1A1A1A"/>
<path d="M245.314 139.235C248.812 139.235 251.607 140.451 253.698 142.883C255.831 145.272 256.898 148.856 256.898 153.635V172.131H245.058V154.915C245.058 152.056 243.735 150.627 241.09 150.627C239.682 150.627 238.594 151.075 237.826 151.971C237.1 152.867 236.738 154.104 236.738 155.683V172.131H224.898V127.331H236.738V143.267C238.7 140.579 241.559 139.235 245.314 139.235Z" fill="#1A1A1A"/>
<path d="M282.126 139.235C285.625 139.235 288.42 140.451 290.51 142.883C292.644 145.272 293.71 148.856 293.71 153.635V172.131H281.87V154.915C281.87 152.056 280.548 150.627 277.902 150.627C276.494 150.627 275.406 151.075 274.638 151.971C273.913 152.867 273.55 154.104 273.55 155.683V172.131H261.71V140.131H273.55V143.267C275.513 140.579 278.372 139.235 282.126 139.235Z" fill="#1A1A1A"/>
<path d="M304.475 137.699C302.683 137.699 301.125 137.059 299.803 135.779C298.523 134.456 297.883 132.92 297.883 131.171C297.883 129.421 298.523 127.907 299.803 126.627C301.125 125.304 302.683 124.643 304.475 124.643C306.224 124.643 307.739 125.304 309.019 126.627C310.341 127.907 311.003 129.421 311.003 131.171C311.003 132.92 310.341 134.456 309.019 135.779C307.739 137.059 306.224 137.699 304.475 137.699ZM298.523 172.131V140.131H310.363V172.131H298.523Z" fill="#1A1A1A"/>
<path d="M331.015 173.027C326.109 173.027 322.034 171.427 318.791 168.227C315.549 164.984 313.927 160.952 313.927 156.131C313.927 151.309 315.549 147.299 318.791 144.099C322.034 140.856 326.109 139.235 331.015 139.235C334.173 139.235 337.053 140.003 339.655 141.539C342.301 143.032 344.327 145.059 345.735 147.619L335.751 153.315C334.685 151.523 333.106 150.627 331.015 150.627C329.522 150.627 328.263 151.16 327.239 152.227C326.258 153.251 325.767 154.552 325.767 156.131C325.767 157.709 326.258 159.032 327.239 160.099C328.263 161.123 329.522 161.635 331.015 161.635C333.234 161.635 334.813 160.717 335.751 158.883L345.735 164.643C344.327 167.245 342.301 169.293 339.655 170.787C337.053 172.28 334.173 173.027 331.015 173.027Z" fill="#1A1A1A"/>
<path d="M369.847 140.131H381.687V172.131H369.847V169.251C367.799 171.768 364.94 173.027 361.271 173.027C356.961 173.027 353.441 171.427 350.711 168.227C347.98 165.027 346.615 160.995 346.615 156.131C346.615 151.267 347.98 147.235 350.711 144.035C353.441 140.835 356.961 139.235 361.271 139.235C364.94 139.235 367.799 140.493 369.847 143.011V140.131ZM359.991 160.419C361.057 161.571 362.444 162.147 364.151 162.147C365.857 162.147 367.223 161.571 368.247 160.419C369.313 159.267 369.847 157.837 369.847 156.131C369.847 154.424 369.313 152.995 368.247 151.843C367.223 150.691 365.857 150.115 364.151 150.115C362.444 150.115 361.057 150.691 359.991 151.843C358.967 152.995 358.455 154.424 358.455 156.131C358.455 157.837 358.967 159.267 359.991 160.419Z" fill="#1A1A1A"/>
<path d="M386.835 172.131V125.411H398.675V172.131H386.835Z" fill="#1A1A1A"/>
<path d="M426.813 167.907H448.573V172.131H422.333V127.331H448.253V131.555H426.813V147.427H446.653V151.651H426.813V167.907Z" fill="#1A1A1A"/>
<path d="M482.51 172.131H477.454L467.47 158.947L457.486 172.131H452.43L464.974 155.555L453.262 140.131H458.318L467.47 152.227L476.622 140.131H481.678L470.03 155.555L482.51 172.131Z" fill="#1A1A1A"/>
<path d="M505.407 139.363C509.973 139.363 513.855 140.984 517.055 144.227C520.298 147.469 521.919 151.437 521.919 156.131C521.919 160.824 520.298 164.792 517.055 168.035C513.855 171.277 509.973 172.899 505.407 172.899C499.733 172.899 495.423 170.552 492.479 165.859V184.931H488.255V140.131H492.479V146.403C495.423 141.709 499.733 139.363 505.407 139.363ZM496.127 165.155C498.559 167.587 501.546 168.803 505.087 168.803C508.629 168.803 511.615 167.587 514.047 165.155C516.479 162.68 517.695 159.672 517.695 156.131C517.695 152.589 516.479 149.603 514.047 147.171C511.615 144.696 508.629 143.459 505.087 143.459C501.546 143.459 498.559 144.696 496.127 147.171C493.695 149.603 492.479 152.589 492.479 156.131C492.479 159.672 493.695 162.68 496.127 165.155Z" fill="#1A1A1A"/>
<path d="M543.727 139.363C548.463 139.363 552.281 141.048 555.183 144.419C558.127 147.747 559.599 151.693 559.599 156.259C559.599 156.728 559.556 157.389 559.471 158.243H531.375C531.801 161.485 533.167 164.067 535.471 165.987C537.817 167.864 540.697 168.803 544.111 168.803C546.543 168.803 548.633 168.312 550.383 167.331C552.175 166.307 553.519 164.984 554.415 163.363L558.127 165.539C556.719 167.8 554.799 169.592 552.367 170.915C549.935 172.237 547.161 172.899 544.047 172.899C539.012 172.899 534.916 171.32 531.759 168.163C528.601 165.005 527.023 160.995 527.023 156.131C527.023 151.352 528.58 147.363 531.695 144.163C534.809 140.963 538.82 139.363 543.727 139.363ZM543.727 143.459C540.399 143.459 537.604 144.461 535.343 146.467C533.124 148.429 531.801 150.989 531.375 154.147H555.247C554.82 150.776 553.519 148.152 551.343 146.275C549.167 144.397 546.628 143.459 543.727 143.459Z" fill="#1A1A1A"/>
<path d="M570.542 145.443C572.504 141.56 575.875 139.619 580.654 139.619V143.715C577.753 143.715 575.342 144.568 573.422 146.275C571.502 147.981 570.542 150.669 570.542 154.339V172.131H566.318V140.131H570.542V145.443Z" fill="#1A1A1A"/>
<path d="M604.028 144.227H594.812V163.619C594.812 165.368 595.153 166.627 595.836 167.395C596.518 168.12 597.542 168.504 598.908 168.547C600.273 168.547 601.98 168.504 604.028 168.419V172.131C599.548 172.813 596.177 172.493 593.916 171.171C591.697 169.848 590.588 167.331 590.588 163.619V144.227H583.868V140.131H590.588V132.451L594.812 131.171V140.131H604.028V144.227Z" fill="#1A1A1A"/>
<path d="M615.356 132.451C614.758 133.048 614.033 133.347 613.18 133.347C612.326 133.347 611.601 133.048 611.004 132.451C610.406 131.853 610.108 131.128 610.108 130.275C610.108 129.421 610.406 128.696 611.004 128.099C611.601 127.501 612.326 127.203 613.18 127.203C614.033 127.203 614.758 127.501 615.356 128.099C615.953 128.696 616.252 129.421 616.252 130.275C616.252 131.128 615.953 131.853 615.356 132.451ZM611.068 172.131V140.131H615.292V172.131H611.068Z" fill="#1A1A1A"/>
<path d="M627.583 148.515C627.583 149.965 628.223 151.117 629.503 151.971C630.783 152.824 632.341 153.485 634.175 153.955C636.01 154.424 637.845 154.957 639.679 155.555C641.514 156.109 643.071 157.069 644.351 158.435C645.631 159.757 646.271 161.507 646.271 163.683C646.271 166.413 645.183 168.632 643.007 170.339C640.874 172.045 638.101 172.899 634.687 172.899C631.615 172.899 628.991 172.216 626.815 170.851C624.682 169.485 623.189 167.715 622.335 165.539L625.919 163.427C626.517 165.091 627.583 166.413 629.119 167.395C630.698 168.333 632.554 168.803 634.687 168.803C636.778 168.803 638.527 168.397 639.935 167.587C641.343 166.733 642.047 165.432 642.047 163.683C642.047 162.232 641.407 161.08 640.127 160.227C638.847 159.373 637.29 158.712 635.455 158.243C633.621 157.773 631.786 157.261 629.951 156.707C628.117 156.109 626.559 155.149 625.279 153.827C623.999 152.461 623.359 150.691 623.359 148.515C623.359 145.912 624.383 143.736 626.431 141.987C628.522 140.237 631.146 139.363 634.303 139.363C636.906 139.363 639.189 139.96 641.151 141.155C643.114 142.307 644.565 143.885 645.503 145.891L641.983 147.939C640.746 144.952 638.186 143.459 634.303 143.459C632.469 143.459 630.89 143.907 629.567 144.803C628.245 145.656 627.583 146.893 627.583 148.515Z" fill="#1A1A1A"/>
<path d="M667.164 139.363C671.9 139.363 675.719 141.048 678.62 144.419C681.564 147.747 683.036 151.693 683.036 156.259C683.036 156.728 682.994 157.389 682.908 158.243H654.812C655.239 161.485 656.604 164.067 658.908 165.987C661.255 167.864 664.135 168.803 667.548 168.803C669.98 168.803 672.071 168.312 673.82 167.331C675.612 166.307 676.956 164.984 677.852 163.363L681.564 165.539C680.156 167.8 678.236 169.592 675.804 170.915C673.372 172.237 670.599 172.899 667.484 172.899C662.45 172.899 658.354 171.32 655.196 168.163C652.039 165.005 650.46 160.995 650.46 156.131C650.46 151.352 652.018 147.363 655.132 144.163C658.247 140.963 662.258 139.363 667.164 139.363ZM667.164 143.459C663.836 143.459 661.042 144.461 658.78 146.467C656.562 148.429 655.239 150.989 654.812 154.147H678.684C678.258 150.776 676.956 148.152 674.78 146.275C672.604 144.397 670.066 143.459 667.164 143.459Z" fill="#1A1A1A"/>
</svg>
